<svg xmlns="http://www.w3.org/2000/svg" viewBox="0 0 282.01 42.78"><defs><style>.cls-1{fill:#010101;}</style></defs><title>logo</title><g id="Layer_2" data-name="Layer 2"><g id="Layer_1-2" data-name="Layer 1"><path class="cls-1" d="M50.14,2.63H0V40.45H21.14v-6h29c9.82,0,20.49-1.22,20.49-15C70.63,3.83,60,2.63,50.14,2.63M48.58,21.47H21.14v-4H48.58c1.71,0,2.24.79,2.24,2s-.53,2-2.24,2"/><path class="cls-1" d="M268.11,9.58a7,7,0,1,1,7,7,6.93,6.93,0,0,1-7-7m12.39.11a5.45,5.45,0,1,0-10.89-.11,5.45,5.45,0,1,0,10.89.11m-1.84.63a3.34,3.34,0,0,1-3.58,3.24,3.72,3.72,0,0,1-3.81-4,3.8,3.8,0,0,1,3.87-4,3.3,3.3,0,0,1,3.45,2.89h-1.91a1.45,1.45,0,0,0-1.52-1.23c-1.24,0-2,.92-2,2.39s.71,2.35,2,2.35c.78,0,1.36-.54,1.58-1.57Z"/><path class="cls-1" d="M219.7,14.17c2.16-.06,5.81-.1,8-.1s5.15.09,8.75.17a4.64,4.64,0,0,1,4.75,4.66h23.4c-.16-6.43-.16-11.13-5.78-14.24S240.56,0,228.91,0s-23.55,1.55-29.18,4.66-6.94,8.27-6.94,16.73,1.32,13.62,6.94,16.73,17.52,4.66,29.18,4.66,24.28-1.56,29.9-4.66,5.62-7.81,5.78-14.25h-23.4a4.65,4.65,0,0,1-4.75,4.67c-3.6.08-6.68.17-8.75.17s-5.83,0-8-.11a6.25,6.25,0,0,1-6.26-5.26c-.06-.61-.1-1.26-.1-1.95s0-1.34.1-1.95a6.26,6.26,0,0,1,6.26-5.27M228.91,0h0m0,42.77s0,0,0,0,0,0,0,0"/><polygon class="cls-1" points="94.92 26.26 94.92 2.63 73.77 2.63 73.77 40.45 114.24 40.45 122.49 26.26 94.92 26.26"/><path class="cls-1" d="M173.45,2.34H139.9L117.76,40.46h21.08l2.35-4.39h31l2.35,4.39h21.08Zm-26,22.72,4.64-8.68h9.09l4.64,8.68Z"/></g></g></svg>